<?xml version="1.0" encoding="utf-8"?>
<svg data-v-fde0c5aa="" viewBox="31.166 116.949 127.316 34.404" class="iconLeft" xmlns="http://www.w3.org/2000/svg">
  <g data-v-fde0c5aa="" id="ed566e57-6944-402b-bf9d-489ae11d8e81" fill="#FFFFFF" transform="matrix(2.078351, 0, 0, 1.927472, 76.008308, 105.32888)" style="">
    <path d="M0.94 17.48L0.94 13.66L0.53 13.67L0.53 13.67Q0.27 13.67 0.16 13.62L0.16 13.62L0.16 13.62Q0.04 13.57 0.04 13.42L0.04 13.42L0.04 13.42Q0.04 13.26 0.17 13.14L0.17 13.14L0.17 13.14Q0.31 13.01 0.48 12.94L0.48 12.94L0.48 12.94Q0.95 12.75 1.04 12.62L1.04 12.62L1.04 12.62Q1.13 12.48 1.32 12.03L1.32 12.03L1.32 12.03Q1.78 10.90 2.08 10.90L2.08 10.90L2.08 10.90Q2.24 10.90 2.27 11.24L2.27 11.24L2.27 11.24Q2.29 11.58 2.29 11.76L2.29 11.76L2.29 11.76Q2.30 11.94 2.29 12.29L2.29 12.29L2.29 12.29Q2.28 12.64 2.28 12.78L2.28 12.78L3.91 12.78L3.91 12.78Q4.15 12.78 4.31 12.90L4.31 12.90L4.31 12.90Q4.48 13.02 4.48 13.22L4.48 13.22L4.48 13.22Q4.48 13.42 4.32 13.53L4.32 13.53L4.32 13.53Q4.16 13.64 3.92 13.64L3.92 13.64L2.28 13.64L2.28 17.13L2.28 17.13Q2.28 18.61 3.02 18.61L3.02 18.61L3.02 18.61Q3.23 18.61 3.63 18.49L3.63 18.49L3.63 18.49Q4.03 18.36 4.16 18.36L4.16 18.36L4.16 18.36Q4.44 18.36 4.44 18.68L4.44 18.68L4.44 18.68Q4.44 18.94 3.78 19.19L3.78 19.19L3.78 19.19Q3.12 19.44 2.42 19.44L2.42 19.44L2.42 19.44Q1.73 19.44 1.34 18.90L1.34 18.90L1.34 18.90Q0.94 18.36 0.94 17.48L0.94 17.48ZM8.70 19.49L8.70 19.49L8.70 19.49Q7.16 19.49 6.21 18.52L6.21 18.52L6.21 18.52Q5.27 17.54 5.27 16.04L5.27 16.04L5.27 16.04Q5.27 15.05 5.77 14.27L5.77 14.27L5.77 14.27Q6.27 13.49 7.12 13.07L7.12 13.07L7.12 13.07Q7.97 12.66 9.02 12.66L9.02 12.66L9.02 12.66Q10.52 12.66 11.50 13.60L11.50 13.60L11.50 13.60Q12.48 14.53 12.48 16.02L12.48 16.02L12.48 16.02Q12.48 17.04 11.97 17.84L11.97 17.84L11.97 17.84Q11.47 18.63 10.62 19.06L10.62 19.06L10.62 19.06Q9.76 19.49 8.70 19.49ZM8.98 18.73L8.98 18.73L8.98 18.73Q10.00 18.73 10.57 18.04L10.57 18.04L10.57 18.04Q11.14 17.35 11.14 16.20L11.14 16.20L11.14 16.20Q11.14 15.05 10.49 14.22L10.49 14.22L10.49 14.22Q9.83 13.38 8.80 13.38L8.80 13.38L8.80 13.38Q7.77 13.38 7.22 14.09L7.22 14.09L7.22 14.09Q6.67 14.79 6.67 15.93L6.67 15.93L6.67 15.93Q6.67 17.08 7.31 17.90L7.31 17.90L7.31 17.90Q7.96 18.73 8.98 18.73ZM18.27 14.18L18.27 14.18Q17.98 13.81 17.44 13.59L17.44 13.59L17.44 13.59Q16.91 13.36 16.24 13.36L16.24 13.36L16.24 13.36Q15.58 13.36 15.11 13.75L15.11 13.75L15.11 13.75Q14.21 14.49 14.21 15.95L14.21 15.95L14.21 15.95Q14.21 17.08 14.82 17.86L14.82 17.86L14.82 17.86Q15.44 18.64 16.42 18.64L16.42 18.64L16.42 18.64Q17.40 18.64 17.83 18.23L17.83 18.23L17.83 18.23Q18.27 17.83 18.27 16.88L18.27 16.88L18.27 14.18ZM16.38 12.63L16.38 12.63L16.38 12.63Q16.83 12.63 17.39 12.77L17.39 12.77L17.39 12.77Q17.94 12.92 18.27 13.08L18.27 13.08L18.27 10.79L18.27 10.79Q18.27 10.17 17.77 10.12L17.77 10.12L17.77 10.12Q17.73 10.12 17.65 10.11L17.65 10.11L17.65 10.11Q17.58 10.10 17.54 10.10L17.54 10.10L17.54 10.10Q17.51 10.10 17.46 10.09L17.46 10.09L17.46 10.09Q17.40 10.08 17.38 10.06L17.38 10.06L17.38 10.06Q17.36 10.05 17.34 10.03L17.34 10.03L17.34 10.03Q17.29 9.99 17.29 9.83L17.29 9.83L17.29 9.83Q17.29 9.67 17.50 9.50L17.50 9.50L17.50 9.50Q17.88 9.19 18.53 9.19L18.53 9.19L18.53 9.19Q19.22 9.19 19.34 9.27L19.34 9.27L19.34 9.27Q19.57 9.43 19.57 9.70L19.57 9.70L19.57 17.18L19.57 17.18Q19.57 17.94 19.74 18.16L19.74 18.16L19.74 18.16Q19.91 18.38 20.04 18.43L20.04 18.43L20.04 18.43Q20.17 18.48 20.27 18.51L20.27 18.51L20.27 18.51Q20.37 18.55 20.41 18.56L20.41 18.56L20.41 18.56Q20.45 18.58 20.51 18.62L20.51 18.62L20.51 18.62Q20.62 18.68 20.62 18.81L20.62 18.81L20.62 18.81Q20.62 19.10 20.32 19.23L20.32 19.23L20.32 19.23Q20.02 19.37 19.51 19.37L19.51 19.37L19.51 19.37Q19.01 19.37 18.79 19.17L18.79 19.17L18.79 19.17Q18.56 18.98 18.39 18.47L18.39 18.47L18.39 18.47Q17.83 19.46 16.05 19.46L16.05 19.46L16.05 19.46Q14.63 19.46 13.74 18.52L13.74 18.52L13.74 18.52Q12.84 17.58 12.84 16.07L12.84 16.07L12.84 16.07Q12.84 14.57 13.84 13.60L13.84 13.60L13.84 13.60Q14.83 12.63 16.38 12.63ZM24.67 19.49L24.67 19.49L24.67 19.49Q23.13 19.49 22.18 18.52L22.18 18.52L22.18 18.52Q21.24 17.54 21.24 16.04L21.24 16.04L21.24 16.04Q21.24 15.05 21.74 14.27L21.74 14.27L21.74 14.27Q22.24 13.49 23.09 13.07L23.09 13.07L23.09 13.07Q23.94 12.66 24.99 12.66L24.99 12.66L24.99 12.66Q26.49 12.66 27.47 13.60L27.47 13.60L27.47 13.60Q28.44 14.53 28.44 16.02L28.44 16.02L28.44 16.02Q28.44 17.04 27.94 17.84L27.94 17.84L27.94 17.84Q27.44 18.63 26.58 19.06L26.58 19.06L26.58 19.06Q25.73 19.49 24.67 19.49ZM24.95 18.73L24.95 18.73L24.95 18.73Q25.97 18.73 26.54 18.04L26.54 18.04L26.54 18.04Q27.11 17.35 27.11 16.20L27.11 16.20L27.11 16.20Q27.11 15.05 26.46 14.22L26.46 14.22L26.46 14.22Q25.80 13.38 24.77 13.38L24.77 13.38L24.77 13.38Q23.74 13.38 23.19 14.09L23.19 14.09L23.19 14.09Q22.63 14.79 22.63 15.93L22.63 15.93L22.63 15.93Q22.63 17.08 23.28 17.90L23.28 17.90L23.28 17.90Q23.93 18.73 24.95 18.73ZM32.14 18.70L32.14 18.70L32.14 18.70Q33.68 18.70 33.68 17.75L33.68 17.75L33.68 17.75Q33.68 17.04 32.29 16.64L32.29 16.64L32.29 16.64Q32.03 16.56 31.66 16.46L31.66 16.46L31.66 16.46Q30.97 16.28 30.73 16.18L30.73 16.18L30.73 16.18Q30.13 15.95 29.72 15.50L29.72 15.50L29.72 15.50Q29.30 15.06 29.30 14.45L29.30 14.45L29.30 14.45Q29.30 13.67 30.05 13.15L30.05 13.15L30.05 13.15Q30.80 12.63 31.86 12.63L31.86 12.63L31.86 12.63Q32.89 12.63 33.79 13.00L33.79 13.00L33.79 13.00Q34.23 13.19 34.51 13.51L34.51 13.51L34.51 13.51Q34.79 13.84 34.79 14.20L34.79 14.20L34.79 14.20Q34.79 14.55 34.50 14.77L34.50 14.77L34.50 14.77Q34.22 14.98 33.92 14.98L33.92 14.98L33.92 14.98Q33.61 14.98 33.51 14.92L33.51 14.92L33.51 14.92Q33.41 14.86 33.41 14.65L33.41 14.65L33.41 14.65Q33.41 13.33 32.01 13.33L32.01 13.33L32.01 13.33Q31.43 13.33 31.00 13.59L31.00 13.59L31.00 13.59Q30.57 13.84 30.57 14.25L30.57 14.25L30.57 14.25Q30.57 14.90 31.91 15.27L31.91 15.27L31.91 15.27Q32.12 15.33 32.42 15.40L32.42 15.40L32.42 15.40Q32.72 15.48 32.98 15.56L32.98 15.56L32.98 15.56Q33.23 15.64 33.51 15.75L33.51 15.75L33.51 15.75Q33.78 15.85 34.09 16.02L34.09 16.02L34.09 16.02Q34.40 16.19 34.59 16.39L34.59 16.39L34.59 16.39Q35.03 16.84 35.03 17.48L35.03 17.48L35.03 17.48Q35.03 18.12 34.60 18.59L34.60 18.59L34.60 18.59Q33.75 19.50 32.14 19.50L32.14 19.50L32.14 19.50Q31.10 19.50 30.21 19.15L30.21 19.15L30.21 19.15Q29.76 18.98 29.49 18.66L29.49 18.66L29.49 18.66Q29.22 18.35 29.22 17.99L29.22 17.99L29.22 17.99Q29.22 17.64 29.44 17.44L29.44 17.44L29.44 17.44Q29.67 17.25 29.96 17.25L29.96 17.25L29.96 17.25Q30.24 17.25 30.44 17.42L30.44 17.42L30.44 17.42Q30.65 17.60 30.65 17.87L30.65 17.87L30.65 17.87Q30.65 18.13 30.60 18.43L30.60 18.43L30.60 18.43Q31.32 18.70 32.14 18.70Z"/>
  </g>
  <g data-v-fde0c5aa="" id="cc2119ae-7c5b-4926-9776-573db92ef35b" stroke="none" fill="#041814" transform="matrix(0.422167, 0, 0, 0.433673, 38.470371, 116.264328)" style="">
    <path d="M50.474 15.04c-11.688 0-21.733 7.03-26.139 17.092l3.484 1.363c3.846-8.492 12.408-14.41 22.32-14.41 13.497 0 24.474 10.976 24.474 24.474S63.636 68.042 50.138 68.042c-13.496 0-24.483-10.985-24.483-24.483 0-2.793.368-5.25 1.233-7.753l-3.484-1.337c-1.01 2.92-1.449 5.826-1.449 9.09 0 15.75 12.767 28.519 28.52 28.519 15.751 0 28.519-12.768 28.519-28.52 0-15.75-12.768-28.519-28.52-28.519zM2.293 21.135c2.77 3.024 3.078 4.632 3.078 4.632s-.98.476-4.777.638c0 0 3.927 2.417 6.114 2.38.51-.008 1.406-.604 1.406-.604L47.8 43.532l.164.061.397.156-.837 2.82 5.7-3.062-3.337-5.174-1.095 3.346-.026.095c-.11-.035-.08-.028-.086-.035L9.106 26.432s-.498-1.724-1.096-2.346c-1.486-1.546-5.717-2.95-5.717-2.95zm47.845 1.234c-8.517 0-15.876 5.058-19.24 12.323l3.915 1.535c2.744-5.708 8.58-9.658 15.325-9.658 9.372 0 16.989 7.618 16.99 16.989 0 9.37-7.618 16.997-16.99 16.997-9.371 0-16.998-7.626-16.998-16.997 0-1.847.247-3.56.794-5.226l-3.881-1.467a20.456 20.456 0 0 0-1.104 6.693c0 11.684 9.506 21.189 21.19 21.189 11.684 0 21.189-9.505 21.188-21.19 0-11.683-9.504-21.188-21.189-21.188zm0 7.175c-5.487 0-10.247 3.166-12.548 7.77l3.933 1.526c1.673-3.037 4.909-5.105 8.615-5.105 5.418 0 9.823 4.407 9.823 9.823 0 5.415-4.405 9.822-9.823 9.822-5.417 0-9.831-4.406-9.831-9.822 0-.944.06-1.732.31-2.596L36.72 39.47c-.422 1.334-.603 2.616-.603 4.088 0 7.73 6.293 14.022 14.022 14.022 7.73 0 14.014-6.293 14.014-14.022 0-7.73-6.284-14.014-14.014-14.014zm0 7.21a6.802 6.802 0 0 0-5.7 3.087l4.14 1.612 1.146-3.484.086-.276.156.242 3.57 5.554.078.12-.13.07-6.114 3.285-.293.155.095-.31.87-2.992-4.553-1.751c-.107.48-.164.979-.164 1.492 0 3.759 3.054 6.804 6.813 6.804a6.803 6.803 0 0 0 6.804-6.804 6.803 6.803 0 0 0-6.804-6.805z" style="fill: rgb(57, 218, 162);"/>
  </g>
</svg>