<?xml version="1.0" encoding="utf-8"?>
<svg data-v-fde0c5aa="" viewBox="0 113.637 52.236 33.668" class="iconLeft" xmlns="http://www.w3.org/2000/svg">
  <rect data-v-fde0c5aa="" fill="#39DAA2" y="112.467" width="53.047" height="34.773" class="logo-background-square" style=""/>
  <g data-v-fde0c5aa="" id="cc2119ae-7c5b-4926-9776-573db92ef35b" stroke="none" fill="#041814" transform="matrix(0.575779, 0, 0, 0.552926, 2.635415, 106.014168)" style="">
    <path d="M50.474 15.04c-11.688 0-21.733 7.03-26.139 17.092l3.484 1.363c3.846-8.492 12.408-14.41 22.32-14.41 13.497 0 24.474 10.976 24.474 24.474S63.636 68.042 50.138 68.042c-13.496 0-24.483-10.985-24.483-24.483 0-2.793.368-5.25 1.233-7.753l-3.484-1.337c-1.01 2.92-1.449 5.826-1.449 9.09 0 15.75 12.767 28.519 28.52 28.519 15.751 0 28.519-12.768 28.519-28.52 0-15.75-12.768-28.519-28.52-28.519zM2.293 21.135c2.77 3.024 3.078 4.632 3.078 4.632s-.98.476-4.777.638c0 0 3.927 2.417 6.114 2.38.51-.008 1.406-.604 1.406-.604L47.8 43.532l.164.061.397.156-.837 2.82 5.7-3.062-3.337-5.174-1.095 3.346-.026.095c-.11-.035-.08-.028-.086-.035L9.106 26.432s-.498-1.724-1.096-2.346c-1.486-1.546-5.717-2.95-5.717-2.95zm47.845 1.234c-8.517 0-15.876 5.058-19.24 12.323l3.915 1.535c2.744-5.708 8.58-9.658 15.325-9.658 9.372 0 16.989 7.618 16.99 16.989 0 9.37-7.618 16.997-16.99 16.997-9.371 0-16.998-7.626-16.998-16.997 0-1.847.247-3.56.794-5.226l-3.881-1.467a20.456 20.456 0 0 0-1.104 6.693c0 11.684 9.506 21.189 21.19 21.189 11.684 0 21.189-9.505 21.188-21.19 0-11.683-9.504-21.188-21.189-21.188zm0 7.175c-5.487 0-10.247 3.166-12.548 7.77l3.933 1.526c1.673-3.037 4.909-5.105 8.615-5.105 5.418 0 9.823 4.407 9.823 9.823 0 5.415-4.405 9.822-9.823 9.822-5.417 0-9.831-4.406-9.831-9.822 0-.944.06-1.732.31-2.596L36.72 39.47c-.422 1.334-.603 2.616-.603 4.088 0 7.73 6.293 14.022 14.022 14.022 7.73 0 14.014-6.293 14.014-14.022 0-7.73-6.284-14.014-14.014-14.014zm0 7.21a6.802 6.802 0 0 0-5.7 3.087l4.14 1.612 1.146-3.484.086-.276.156.242 3.57 5.554.078.12-.13.07-6.114 3.285-.293.155.095-.31.87-2.992-4.553-1.751c-.107.48-.164.979-.164 1.492 0 3.759 3.054 6.804 6.813 6.804a6.803 6.803 0 0 0 6.804-6.804 6.803 6.803 0 0 0-6.804-6.805z"/>
  </g>
</svg>